<svg xmlns="http://www.w3.org/2000/svg" width="28" height="25" viewBox="0 0 28 25">
  <g id="calendar_1_" data-name="calendar (1)" transform="translate(0 -25)">
    <path id="Path_3941" data-name="Path 3941" d="M28,32.886V29.655a2.465,2.465,0,0,0-2.461-2.464h-.328V30.2a.82.82,0,1,1-1.641,0V25.821a.82.82,0,1,0-1.641,0v1.369H16.461V30.2a.82.82,0,1,1-1.641,0V25.821a.82.82,0,1,0-1.641,0v1.369H7.711V30.2a.82.82,0,1,1-1.641,0V25.821a.82.82,0,1,0-1.641,0v1.369H2.461A2.465,2.465,0,0,0,0,29.655v3.231Z" fill="#fff"/>
    <path id="Path_3942" data-name="Path 3942" d="M0,199v13.308a2.465,2.465,0,0,0,2.461,2.464H25.539A2.465,2.465,0,0,0,28,212.308V199Zm7.875,11.391H6.125a.821.821,0,0,1,0-1.643h1.75a.821.821,0,0,1,0,1.643Zm0-3.5H6.125a.821.821,0,0,1,0-1.643h1.75a.821.821,0,0,1,0,1.643Zm0-3.5H6.125a.821.821,0,0,1,0-1.643h1.75a.821.821,0,0,1,0,1.643Zm7,7.01h-1.75a.821.821,0,0,1,0-1.643h1.75a.821.821,0,0,1,0,1.643Zm0-3.5h-1.75a.821.821,0,0,1,0-1.643h1.75a.821.821,0,0,1,0,1.643Zm0-3.5h-1.75a.821.821,0,0,1,0-1.643h1.75a.821.821,0,0,1,0,1.643Zm7,7.01h-1.75a.821.821,0,0,1,0-1.643h1.75a.821.821,0,0,1,0,1.643Zm0-3.5h-1.75a.821.821,0,0,1,0-1.643h1.75a.821.821,0,0,1,0,1.643Zm0-3.5h-1.75a.821.821,0,0,1,0-1.643h1.75a.821.821,0,0,1,0,1.643Z" transform="translate(0 -164.772)" fill="#fff"/>
  </g>
</svg>
