<svg xmlns="http://www.w3.org/2000/svg" width="18.584" height="24.092" viewBox="0 0 18.584 24.092">
  <g id="user_1_" data-name="user (1)" transform="translate(0 1)">
    <path id="Path_549" data-name="Path 549" d="M92.4,10.73A5.191,5.191,0,0,0,96.19,9.158a5.191,5.191,0,0,0,1.572-3.793A5.192,5.192,0,0,0,96.19,1.572a5.364,5.364,0,0,0-7.587,0,5.191,5.191,0,0,0-1.572,3.793A5.191,5.191,0,0,0,88.6,9.158,5.192,5.192,0,0,0,92.4,10.73Zm0,0" transform="translate(-83.246 -1)" fill="#fff"/>
    <path id="Path_550" data-name="Path 550" d="M18.539,253.685a13.25,13.25,0,0,0-.18-1.407,11.09,11.09,0,0,0-.346-1.415,6.99,6.99,0,0,0-.582-1.32,4.98,4.98,0,0,0-.877-1.143,3.868,3.868,0,0,0-1.26-.792,4.355,4.355,0,0,0-1.609-.291,1.633,1.633,0,0,0-.872.37c-.261.17-.567.368-.908.586a5.2,5.2,0,0,1-1.175.518,4.564,4.564,0,0,1-2.875,0,5.193,5.193,0,0,1-1.174-.518c-.338-.216-.644-.413-.909-.586a1.63,1.63,0,0,0-.872-.37,4.35,4.35,0,0,0-1.609.291,3.864,3.864,0,0,0-1.26.792,4.98,4.98,0,0,0-.877,1.143,7,7,0,0,0-.582,1.32,11.115,11.115,0,0,0-.346,1.415,13.2,13.2,0,0,0-.18,1.408C.015,254.112,0,254.554,0,255a3.7,3.7,0,0,0,1.1,2.8,3.955,3.955,0,0,0,2.831,1.033H14.655a3.954,3.954,0,0,0,2.831-1.033,3.7,3.7,0,0,0,1.1-2.8c0-.449-.015-.892-.045-1.316Zm0,0" transform="translate(0 -235.739)" fill="#fff"/>
  </g>
</svg>
