<svg xmlns="http://www.w3.org/2000/svg" width="21.604" height="21.604" viewBox="0 0 21.604 21.604">
  <path id="Icon_awesome-smile" data-name="Icon awesome-smile" d="M10.8.563a10.8,10.8,0,1,0,10.8,10.8A10.8,10.8,0,0,0,10.8.563ZM14.287,7.88a1.394,1.394,0,1,1-1.394,1.394A1.392,1.392,0,0,1,14.287,7.88Zm-6.969,0A1.394,1.394,0,1,1,5.924,9.274,1.392,1.392,0,0,1,7.318,7.88ZM15.8,15.293a6.507,6.507,0,0,1-10,0A.7.7,0,0,1,6.873,14.4a5.118,5.118,0,0,0,7.858,0A.7.7,0,0,1,15.8,15.293Z" transform="translate(0 -0.563)" fill="#fecd03"/>
</svg>
