<svg xmlns="http://www.w3.org/2000/svg" width="19.942" height="22.791" viewBox="0 0 19.942 22.791">
  <path id="Icon_awesome-calendar-alt" data-name="Icon awesome-calendar-alt" d="M0,20.654a2.137,2.137,0,0,0,2.137,2.137H17.806a2.137,2.137,0,0,0,2.137-2.137V8.547H0ZM14.244,11.93a.536.536,0,0,1,.534-.534h1.781a.536.536,0,0,1,.534.534V13.71a.536.536,0,0,1-.534.534H14.779a.536.536,0,0,1-.534-.534Zm0,5.7a.536.536,0,0,1,.534-.534h1.781a.536.536,0,0,1,.534.534v1.781a.536.536,0,0,1-.534.534H14.779a.536.536,0,0,1-.534-.534Zm-5.7-5.7a.536.536,0,0,1,.534-.534h1.781a.536.536,0,0,1,.534.534V13.71a.536.536,0,0,1-.534.534H9.081a.536.536,0,0,1-.534-.534Zm0,5.7a.536.536,0,0,1,.534-.534h1.781a.536.536,0,0,1,.534.534v1.781a.536.536,0,0,1-.534.534H9.081a.536.536,0,0,1-.534-.534Zm-5.7-5.7a.536.536,0,0,1,.534-.534H5.164a.536.536,0,0,1,.534.534V13.71a.536.536,0,0,1-.534.534H3.383a.536.536,0,0,1-.534-.534Zm0,5.7a.536.536,0,0,1,.534-.534H5.164a.536.536,0,0,1,.534.534v1.781a.536.536,0,0,1-.534.534H3.383a.536.536,0,0,1-.534-.534ZM17.806,2.849H15.669V.712A.714.714,0,0,0,14.957,0H13.532a.714.714,0,0,0-.712.712V2.849h-5.7V.712A.714.714,0,0,0,6.41,0H4.986a.714.714,0,0,0-.712.712V2.849H2.137A2.137,2.137,0,0,0,0,4.986V7.122H19.942V4.986A2.137,2.137,0,0,0,17.806,2.849Z"/>
</svg>
