<svg xmlns="http://www.w3.org/2000/svg" width="28" height="25" viewBox="0 0 28 25">
  <g id="calendar_2_" data-name="calendar (2)" transform="translate(0 -25)">
    <path id="Path_3943" data-name="Path 3943" d="M99.754,249H97.879a.879.879,0,0,0,0,1.758h1.875a.879.879,0,0,0,0-1.758Z" transform="translate(-91.748 -211.949)" fill="#fff"/>
    <path id="Path_3944" data-name="Path 3944" d="M99.754,313H97.879a.879.879,0,0,0,0,1.758h1.875a.879.879,0,0,0,0-1.758Z" transform="translate(-91.748 -272.505)" fill="#fff"/>
    <path id="Path_3945" data-name="Path 3945" d="M99.754,377H97.879a.879.879,0,0,0,0,1.758h1.875a.879.879,0,0,0,0-1.758Z" transform="translate(-91.748 -333.062)" fill="#fff"/>
    <path id="Path_3946" data-name="Path 3946" d="M227.754,249h-1.875a.879.879,0,0,0,0,1.758h1.875a.879.879,0,0,0,0-1.758Z" transform="translate(-212.816 -211.949)" fill="#fff"/>
    <path id="Path_3947" data-name="Path 3947" d="M227.754,313h-1.875a.879.879,0,0,0,0,1.758h1.875a.879.879,0,0,0,0-1.758Z" transform="translate(-212.816 -272.505)" fill="#fff"/>
    <path id="Path_3948" data-name="Path 3948" d="M227.754,377h-1.875a.879.879,0,0,0,0,1.758h1.875a.879.879,0,0,0,0-1.758Z" transform="translate(-212.816 -333.062)" fill="#fff"/>
    <path id="Path_3949" data-name="Path 3949" d="M355.754,249h-1.875a.879.879,0,0,0,0,1.758h1.875a.879.879,0,0,0,0-1.758Z" transform="translate(-333.885 -211.949)" fill="#fff"/>
    <path id="Path_3950" data-name="Path 3950" d="M355.754,313h-1.875a.879.879,0,0,0,0,1.758h1.875a.879.879,0,0,0,0-1.758Z" transform="translate(-333.885 -272.505)" fill="#fff"/>
    <path id="Path_3951" data-name="Path 3951" d="M355.754,377h-1.875a.879.879,0,0,0,0,1.758h1.875a.879.879,0,0,0,0-1.758Z" transform="translate(-333.885 -333.062)" fill="#fff"/>
    <path id="Path_3952" data-name="Path 3952" d="M25.539,27.165H23.57V25.812a.82.82,0,0,0-1.641,0v1.353H14.82V25.812a.82.82,0,0,0-1.641,0v1.353H6.07V25.812a.82.82,0,0,0-1.641,0v1.353H2.461A2.451,2.451,0,0,0,0,29.6V47.565A2.451,2.451,0,0,0,2.461,50H25.539A2.451,2.451,0,0,0,28,47.565V29.6A2.451,2.451,0,0,0,25.539,27.165ZM1.641,29.6a.817.817,0,0,1,.82-.812H4.43v1.353a.82.82,0,0,0,1.641,0V28.788H13.18v1.353a.82.82,0,0,0,1.641,0V28.788H21.93v1.353a.82.82,0,0,0,1.641,0V28.788h1.969a.817.817,0,0,1,.82.812v3.193H1.641Zm23.9,18.777H2.461a.817.817,0,0,1-.82-.812V34.416H26.359V47.565A.817.817,0,0,1,25.539,48.377Z" fill="#fff"/>
  </g>
</svg>
