<svg xmlns="http://www.w3.org/2000/svg" width="68" height="50.136" viewBox="0 0 68 50.136">
  <g id="close_3_" data-name="close (3)" transform="translate(0 -67.254)">
    <path id="Path_556" data-name="Path 556" d="M93.475,96.247,65.165,82.264a1.025,1.025,0,0,0-1.086.112,1,1,0,0,0-.1.042L35.67,96.4a1.026,1.026,0,1,0,.909,1.84l28.15-13.9L92.566,98.087a1.026,1.026,0,1,0,.909-1.84Z" transform="translate(-30.437 -12.925)" fill="#cbcbcb"/>
    <circle id="Ellipse_51" data-name="Ellipse 51" cx="2.972" cy="2.972" r="2.972" transform="translate(31.321 67.254)" fill="#dd636e"/>
    <path id="Path_557" data-name="Path 557" d="M238.8,82.078a2.972,2.972,0,0,1-2.7-1.738,2.972,2.972,0,1,0,5.407,0A2.972,2.972,0,0,1,238.8,82.078Z" transform="translate(-204.51 -11.348)" fill="#da4a54"/>
    <path id="Path_558" data-name="Path 558" d="M65.251,221.215H2.749A2.749,2.749,0,0,1,0,218.466V189.73a2.749,2.749,0,0,1,2.749-2.749h62.5A2.749,2.749,0,0,1,68,189.73v28.736A2.749,2.749,0,0,1,65.251,221.215Z" transform="translate(0 -103.826)" fill="#fecd03"/>
    <path id="Path_559" data-name="Path 559" d="M65.251,408.214H2.749A2.749,2.749,0,0,1,0,405.465v2.468a2.749,2.749,0,0,0,2.749,2.749h62.5A2.749,2.749,0,0,0,68,407.933v-2.468A2.749,2.749,0,0,1,65.251,408.214Z" transform="translate(0 -293.292)" fill="#e9bc03"/>
    <path id="Path_560" data-name="Path 560" d="M31.034,217.942H90.791v26.011H31.034Z" transform="translate(-26.912 -130.675)" fill="#eaeaea"/>
    <path id="Path_561" data-name="Path 561" d="M31.034,395.2H90.791v2.468H31.034Z" transform="translate(-26.912 -284.395)" fill="#cbcbcb"/>
    <g id="Group_6253" data-name="Group 6253" transform="translate(9.688 94.011)">
      <g id="Group_6252" data-name="Group 6252">
        <path id="Path_562" data-name="Path 562" d="M76.818,268.716a3.877,3.877,0,0,0-3.873,3.873v4.778a3.872,3.872,0,0,0,7.673.742,1.028,1.028,0,1,0-2.019-.392,1.816,1.816,0,0,1-3.6-.349v-4.778a1.816,1.816,0,0,1,3.6-.349,1.028,1.028,0,1,0,2.019-.392A3.877,3.877,0,0,0,76.818,268.716Z" transform="translate(-72.945 -268.716)" fill="#265e9e"/>
        <path id="Path_563" data-name="Path 563" d="M143.7,268.774a1.028,1.028,0,0,0-1.028,1.028v10.452a1.028,1.028,0,0,0,1.028,1.028h4.884a1.028,1.028,0,0,0,0-2.056h-3.856V269.8A1.028,1.028,0,0,0,143.7,268.774Z" transform="translate(-133.415 -268.766)" fill="#265e9e"/>
        <path id="Path_564" data-name="Path 564" d="M195.422,272.589v4.778a3.873,3.873,0,0,0,7.745,0v-4.778a3.873,3.873,0,0,0-7.745,0Zm5.689,0v4.778a1.816,1.816,0,1,1-3.632,0v-4.778a1.816,1.816,0,1,1,3.632,0Z" transform="translate(-179.156 -268.716)" fill="#265e9e"/>
        <path id="Path_565" data-name="Path 565" d="M266.8,270.772a1.657,1.657,0,0,1,1.7,1.368,1.028,1.028,0,1,0,1.961-.62,3.708,3.708,0,0,0-3.662-2.8,3.6,3.6,0,0,0-3.537,3.042c-.223,1.48.509,3.362,3.234,4.2,1.274.393,1.933,1.1,1.807,1.931a1.55,1.55,0,0,1-1.5,1.292c-1.558,0-1.789-1.584-1.82-1.905a1.028,1.028,0,0,0-2.049.172,3.932,3.932,0,0,0,3.869,3.789,3.6,3.6,0,0,0,3.537-3.042c.223-1.48-.509-3.362-3.234-4.2-1.274-.393-1.933-1.1-1.807-1.931a1.551,1.551,0,0,1,1.5-1.292Z" transform="translate(-237.693 -268.716)" fill="#265e9e"/>
        <path id="Path_566" data-name="Path 566" d="M334.427,270.807a1.028,1.028,0,1,0,0-2.056h-4.2a1.028,1.028,0,0,0-1.028,1.028v10.452s0,0,0,0,0,0,0,0a1.028,1.028,0,0,0,1.028,1.028h4.2a1.028,1.028,0,1,0,0-2.056h-3.17v-3.173h3.17a1.028,1.028,0,1,0,0-2.056h-3.17v-3.172h3.17Z" transform="translate(-295.166 -268.746)" fill="#265e9e"/>
        <path id="Path_567" data-name="Path 567" d="M392.6,276.58v-3.105a4.707,4.707,0,0,0-4.7-4.7h-1.385a1.028,1.028,0,0,0-1.028,1.028v10.452a1.028,1.028,0,0,0,1.028,1.028h1.385A4.707,4.707,0,0,0,392.6,276.58Zm-2.056,0a2.648,2.648,0,0,1-2.645,2.645h-.357v-8.4h.357a2.648,2.648,0,0,1,2.645,2.645Z" transform="translate(-343.972 -268.765)" fill="#265e9e"/>
      </g>
    </g>
  </g>
</svg>
