<svg xmlns="http://www.w3.org/2000/svg" width="18.125" height="18.031" viewBox="0 0 18.125 18.031">
  <g id="edit_2_" data-name="edit (2)" transform="translate(0.25 0.066)">
    <path id="Path_3935" data-name="Path 3935" d="M17.038,28.905a.46.46,0,0,0-.46.46v4.082A1.381,1.381,0,0,1,15.2,34.826H2.3A1.381,1.381,0,0,1,.919,33.447V21.467A1.381,1.381,0,0,1,2.3,20.087H6.381a.46.46,0,0,0,0-.919H2.3a2.3,2.3,0,0,0-2.3,2.3v11.98a2.3,2.3,0,0,0,2.3,2.3H15.2a2.3,2.3,0,0,0,2.3-2.3V29.365A.46.46,0,0,0,17.038,28.905Zm0,0" transform="translate(0 -18.031)" stroke="#265e9e" stroke-width="0.5"/>
    <path id="Path_3936" data-name="Path 3936" d="M156.367,39.041l6.713-6.713,2.165,2.165-6.713,6.713Zm0,0" transform="translate(-149.178 -30.586)" stroke="#265e9e" stroke-width="0.5"/>
    <path id="Path_3937" data-name="Path 3937" d="M132.543,199.611l2.392-.663-1.73-1.73Zm0,0" transform="translate(-126.449 -187.896)" stroke="#265e9e" stroke-width="0.5"/>
    <path id="Path_3938" data-name="Path 3938" d="M318.64.6a1.151,1.151,0,0,0-1.625,0l-.488.488,2.165,2.165.488-.488a1.15,1.15,0,0,0,0-1.625Zm0,0" transform="translate(-301.975)" stroke="#265e9e" stroke-width="0.5"/>
  </g>
</svg>
