<svg xmlns="http://www.w3.org/2000/svg" width="132" height="132" viewBox="0 0 132 132">
  <g id="Group_6298" data-name="Group 6298" transform="translate(-5730 185)">
    <circle id="Ellipse_98" data-name="Ellipse 98" cx="66" cy="66" r="66" transform="translate(5730 -185)" fill="#f7f7f7"/>
    <circle id="Ellipse_99" data-name="Ellipse 99" cx="52" cy="52" r="52" transform="translate(5744 -171)" fill="#e5e5e5"/>
    <g id="Group_6288" data-name="Group 6288" transform="translate(2757.073 -1123)">
      <path id="Path_3911" data-name="Path 3911" d="M3059.5,953.333h-42.167l-4,1.333-1,2.5V1058.5l1,2.667,1.833,1.333,3.333.833h40l2.333-.833,2.833-2.5V958.833l-.833-3.333Z" fill="#fff"/>
      <g id="noun_iPhone_2569699" transform="translate(2983.927 949.5)">
        <path id="Path_3910" data-name="Path 3910" d="M27,9.338A7.327,7.327,0,0,1,34.317,2H73.829a7.327,7.327,0,0,1,7.317,7.338v98.325A7.327,7.327,0,0,1,73.829,115H34.317A7.327,7.327,0,0,1,27,107.662Zm1.951.489a5.373,5.373,0,0,1,5.366-5.381h5.854a4.4,4.4,0,0,0,4.39,4.4H63.585a4.4,4.4,0,0,0,4.39-4.4h5.854a5.373,5.373,0,0,1,5.366,5.381v97.346a5.373,5.373,0,0,1-5.366,5.381H34.317a5.373,5.373,0,0,1-5.366-5.381Z" transform="translate(0)" fill="#fecd03" fill-rule="evenodd"/>
      </g>
    </g>
    <g id="Group_6289" data-name="Group 6289" transform="translate(1949.23 398.432)">
      <g id="Group_5649" data-name="Group 5649" transform="translate(3831.337 -540.738)">
        <path id="Path_3926" data-name="Path 3926" d="M225.351,129.251h-3.275v-11.8a6.832,6.832,0,0,0-13.663-.134v11.935h-3.275v-11.8a10.107,10.107,0,1,1,20.213-.162v11.963Z" transform="translate(-200.597 -107.262)" fill="#ccc"/>
        <rect id="Rectangle_319" data-name="Rectangle 319" width="3.275" height="1.31" transform="translate(21.485 18.541)" fill="#f2c300"/>
        <rect id="Rectangle_320" data-name="Rectangle 320" width="3.275" height="1.31" transform="translate(4.542 18.541)" fill="#f2c300"/>
        <rect id="Rectangle_321" data-name="Rectangle 321" width="26.273" height="16.683" transform="translate(1.512 19.843)" fill="#fecd03"/>
        <rect id="Rectangle_322" data-name="Rectangle 322" width="29.298" height="5.459" transform="translate(0 36.521)" fill="#f2c300"/>
        <circle id="Ellipse_50" data-name="Ellipse 50" cx="3.278" cy="3.278" r="3.278" transform="translate(11.37 25.277)" fill="#fff"/>
        <rect id="Rectangle_323" data-name="Rectangle 323" width="2.795" height="5.99" transform="translate(13.249 30.318)" fill="#fff"/>
      </g>
      <g id="Group_5650" data-name="Group 5650" transform="translate(3830.056 -490.244)">
        <circle id="Ellipse_51" data-name="Ellipse 51" cx="2.141" cy="2.141" r="2.141" transform="translate(0 0)" fill="#fecd03"/>
        <circle id="Ellipse_52" data-name="Ellipse 52" cx="2.141" cy="2.141" r="2.141" transform="translate(6.893 0)" fill="#fecd03"/>
        <circle id="Ellipse_53" data-name="Ellipse 53" cx="2.141" cy="2.141" r="2.141" transform="translate(13.788 0)" fill="#fecd03"/>
        <circle id="Ellipse_54" data-name="Ellipse 54" cx="2.141" cy="2.141" r="2.141" transform="translate(20.688 0)" fill="#fecd03"/>
        <circle id="Ellipse_55" data-name="Ellipse 55" cx="2.141" cy="2.141" r="2.141" transform="translate(27.577 0)" fill="#fecd03"/>
      </g>
    </g>
  </g>
</svg>
