<svg xmlns="http://www.w3.org/2000/svg" width="12.218" height="13.042" viewBox="0 0 12.218 13.042">
  <g id="gender_2_" data-name="gender (2)" transform="translate(-16.179)">
    <g id="Group_6195" data-name="Group 6195" transform="translate(16.179)">
      <path id="Path_553" data-name="Path 553" d="M26.056,0V.8h.9L25.2,2.465a3.421,3.421,0,0,0-5.446.739c-.05,0-.1,0-.151,0a3.424,3.424,0,0,0-.4,6.825v1.061h-1.2v.8h1.2v1.158H20V11.884H21.25v-.8H20V10.024a3.431,3.431,0,0,0,2.6-1.748c.05,0,.1,0,.151,0A3.423,3.423,0,0,0,25.69,3.1L27.6,1.29v.992h.8V0ZM19.6,9.249A2.625,2.625,0,0,1,19.435,4a3.426,3.426,0,0,0,2.317,4.127A2.624,2.624,0,0,1,19.6,9.249ZM22.111,7.4a2.626,2.626,0,0,1-1.867-3.325A2.627,2.627,0,0,1,22.111,7.4Zm.809.074A3.426,3.426,0,0,0,20.6,3.349,2.625,2.625,0,1,1,22.92,7.476Z" transform="translate(-16.179)"/>
    </g>
  </g>
</svg>
