<svg xmlns="http://www.w3.org/2000/svg" width="21.75" height="21.75" viewBox="0 0 21.75 21.75">
  <g id="brands-and-logotypes" transform="translate(0)">
    <path id="Path_570" data-name="Path 570" d="M5.1,106.833a5.742,5.742,0,0,1,.813-2.951v-3.666H2.244a10.881,10.881,0,0,0,0,13.236H5.91v-3.666A5.742,5.742,0,0,1,5.1,106.833Z" transform="translate(0 -95.958)" fill="#fbbd00"/>
    <path id="Path_571" data-name="Path 571" d="M198.549,373.77,196,376.319l2.549,2.549a10.793,10.793,0,0,0,6.618-2.244v-3.663H201.5A5.777,5.777,0,0,1,198.549,373.77Z" transform="translate(-187.674 -357.118)" fill="#0f9d58"/>
    <path id="Path_572" data-name="Path 572" d="M56.489,325.477l-3.666,3.666a11.052,11.052,0,0,0,.941,1.072,10.8,10.8,0,0,0,7.69,3.185v-5.1A5.78,5.78,0,0,1,56.489,325.477Z" transform="translate(-50.579 -311.651)" fill="#31aa52"/>
    <path id="Path_573" data-name="Path 573" d="M266.875,199.817a10.971,10.971,0,0,0-.178-1.97l-.1-.522H256v5.1h5.159a5.751,5.751,0,0,1-2.2,2.364l3.662,3.662a11.046,11.046,0,0,0,1.072-.941A10.8,10.8,0,0,0,266.875,199.817Z" transform="translate(-245.125 -188.942)" fill="#3c79e6"/>
    <path id="Path_574" data-name="Path 574" d="M202.634,6.79l.451.451,3.6-3.6-.451-.451A10.8,10.8,0,0,0,198.549,0L196,2.549,198.549,5.1A5.74,5.74,0,0,1,202.634,6.79Z" transform="translate(-187.674 0)" fill="#cf2d48"/>
    <path id="Path_575" data-name="Path 575" d="M61.453,5.1V0a10.8,10.8,0,0,0-7.69,3.185,11.04,11.04,0,0,0-.941,1.072l3.666,3.666A5.78,5.78,0,0,1,61.453,5.1Z" transform="translate(-50.578 0)" fill="#eb4132"/>
  </g>
</svg>
