<svg xmlns="http://www.w3.org/2000/svg" width="17.748" height="17.747" viewBox="0 0 17.748 17.747">
  <g id="logout" transform="translate(0 -0.004)">
    <path id="Path_3232" data-name="Path 3232" d="M11.092,9.617a.739.739,0,0,0-.739.739v2.958a.74.74,0,0,1-.74.739H7.395V2.962A1.49,1.49,0,0,0,6.388,1.556l-.219-.073H9.613a.74.74,0,0,1,.74.74V4.441a.739.739,0,1,0,1.479,0V2.222A2.221,2.221,0,0,0,9.613,0H1.664A.581.581,0,0,0,1.585.02C1.549.017,1.515,0,1.479,0A1.48,1.48,0,0,0,0,1.483V14.793A1.49,1.49,0,0,0,1.007,16.2l4.45,1.483a1.531,1.531,0,0,0,.458.069,1.48,1.48,0,0,0,1.479-1.479v-.739H9.613a2.221,2.221,0,0,0,2.218-2.218V10.356a.739.739,0,0,0-.739-.739Zm0,0"/>
    <path id="Path_3233" data-name="Path 3233" d="M285.25,109.84l-2.958-2.958a.739.739,0,0,0-1.262.523v2.218h-2.958a.739.739,0,1,0,0,1.479h2.958v2.218a.739.739,0,0,0,1.262.523l2.958-2.958A.739.739,0,0,0,285.25,109.84Zm0,0" transform="translate(-267.719 -102.964)"/>
  </g>
</svg>
