<svg xmlns="http://www.w3.org/2000/svg" width="130" height="131.75" viewBox="0 0 130 131.75">
  <g id="Group_6298" data-name="Group 6298" transform="translate(-100 -239)">
    <rect id="Rectangle_4191" data-name="Rectangle 4191" width="88" height="88" rx="5" transform="translate(100 239)" fill="#ffdf5b"/>
    <g id="cancel" transform="translate(145.375 283.417)">
      <g id="Group_6281" data-name="Group 6281" transform="translate(0.625 0)">
        <path id="Path_3234" data-name="Path 3234" d="M77.292,3.333H74.3a2.558,2.558,0,0,0,.157-.771,2.565,2.565,0,0,0-5.131,0,2.4,2.4,0,0,0,.157.771H59.668a2.558,2.558,0,0,0,.157-.771,2.567,2.567,0,0,0-5.133,0,2.479,2.479,0,0,0,.157.771H45.03a2.558,2.558,0,0,0,.157-.771,2.563,2.563,0,0,0-5.125,0,2.476,2.476,0,0,0,.155.771H30.4a2.558,2.558,0,0,0,.157-.771,2.564,2.564,0,0,0-5.128,0,2.477,2.477,0,0,0,.155.771H15.772a2.479,2.479,0,0,0,.157-.771,2.564,2.564,0,0,0-5.128,0,2.477,2.477,0,0,0,.155.771h-3A7.338,7.338,0,0,0,.625,10.667V80a7.336,7.336,0,0,0,7.333,7.333H69.012L84.625,71.72V10.667A7.338,7.338,0,0,0,77.292,3.333Zm3.333,66.728-.829.829h-6.28a5.346,5.346,0,0,0-5.333,5.333V82.5l-.829.829H7.958A3.338,3.338,0,0,1,4.625,80V13.333h76Z" transform="translate(-0.625 0)" fill="#265e9e"/>
        <path id="Path_3235" data-name="Path 3235" d="M11.686,33.691l5,5,7.5-7.5,7.5,7.5,5-5-7.5-7.5,7.5-7.5-5-5-7.5,7.5-7.5-7.5-5,5,7.5,7.5Z" transform="translate(17.81 22.81)" fill="#265e9e"/>
        <path id="Path_3236" data-name="Path 3236" d="M32.8,61.076A26.277,26.277,0,1,0,6.522,34.8,26.3,26.3,0,0,0,32.8,61.076Zm0-48.512A22.235,22.235,0,1,1,10.562,34.8,22.26,22.26,0,0,1,32.8,12.564Z" transform="translate(9.203 14.202)" fill="#265e9e"/>
      </g>
    </g>
  </g>
</svg>
