<svg xmlns="http://www.w3.org/2000/svg" width="132" height="132" viewBox="0 0 132 132">
  <g id="Group_6298" data-name="Group 6298" transform="translate(-122 -214)">
    <circle id="Ellipse_100" data-name="Ellipse 100" cx="66" cy="66" r="66" transform="translate(122 214)" fill="#f7f7f7"/>
    <circle id="Ellipse_101" data-name="Ellipse 101" cx="52" cy="52" r="52" transform="translate(136 228)" fill="#e5e5e5"/>
    <g id="open-email" transform="translate(143 228.001)">
      <path id="Path_3912" data-name="Path 3912" d="M88.49,32.488a10.013,10.013,0,0,0-3.355-4.341L48.762,1.364a7.015,7.015,0,0,0-8.315,0L4.074,28.147A10.23,10.23,0,0,0,.8,32.54,9.777,9.777,0,0,0,0,36.2V54.539H89.209V36.2A9.973,9.973,0,0,0,88.49,32.488Zm0,0" transform="translate(0 0)" fill="#f2c300"/>
      <path id="Path_3914" data-name="Path 3914" d="M129.353,132.969H75.827a4.46,4.46,0,0,0-4.46,4.46v47.18l17.842-.228h26.763l17.842.228V138.222c0-2.463-2-5.253-4.46-5.253Zm0,0" transform="translate(-57.986 -111.038)" fill="#fff"/>
      <path id="Path_3915" data-name="Path 3915" d="M57.987,238.292H31.224L0,205.265v50.822a6.691,6.691,0,0,0,6.691,6.691H82.52a6.691,6.691,0,0,0,6.691-6.691V205.265Zm0,0" transform="translate(-0.001 -166.778)" fill="#fecd03"/>
      <path id="Path_3916" data-name="Path 3916" d="M340.481,205.266l-31.223,33.027" transform="translate(-251.272 -166.779)" fill="#ffcf5d"/>
      <g id="Group_5648" data-name="Group 5648" transform="translate(1.96 44.813)">
        <path id="Path_3917" data-name="Path 3917" d="M64.17,375.461H42.025a5.575,5.575,0,0,0-3.943,1.633L10.453,399.1a6.67,6.67,0,0,0,4.731,1.96H91.011a6.672,6.672,0,0,0,4.731-1.96L68.112,377.094a5.575,5.575,0,0,0-3.943-1.633Zm0,0" transform="translate(-10.453 -349.875)" fill="#f2c300"/>
        <path id="Path_3918" data-name="Path 3918" d="M38.084,384.172,10.453,406.18" transform="translate(-10.453 -356.953)" fill="#f2c300"/>
        <path id="Path_3919" data-name="Path 3919" d="M439.75,241.782a11.592,11.592,0,0,0-3.168,7.962v30.3a4.34,4.34,0,0,1-1.914,3.6l5.75,4.579a6.67,6.67,0,0,0,1.959-4.731V239Zm0,0" transform="translate(-355.128 -239.003)" fill="#f2c300"/>
      </g>
    </g>
    <g id="noun_keys_3163331_1_" data-name="noun_keys_3163331 (1)" transform="translate(154.867 281.871) rotate(-90)">
      <path id="Path_3927" data-name="Path 3927" d="M21.8,31.369l-10.674-.036a4.5,4.5,0,1,0,0,3.6h.693l1.431-.711h.711l.711-.711H16.09l.72.711h.711l.711-.711h1.422l.72.711.711-.711H21.8l.711-.72V32.08ZM5.2,34.258a1.125,1.125,0,1,1,1.125-1.125A1.125,1.125,0,0,1,5.2,34.258Z" transform="translate(3 0)" fill="#fecd03"/>
    </g>
    <g id="Group_6290" data-name="Group 6290" transform="translate(172 284.189)">
      <circle id="Ellipse_51" data-name="Ellipse 51" cx="2.141" cy="2.141" r="2.141" transform="translate(0 0)" fill="#e3bd36"/>
      <circle id="Ellipse_52" data-name="Ellipse 52" cx="2.141" cy="2.141" r="2.141" transform="translate(6.893 0)" fill="#e3bd36"/>
      <circle id="Ellipse_53" data-name="Ellipse 53" cx="2.141" cy="2.141" r="2.141" transform="translate(13.788 0)" fill="#e3bd36"/>
      <circle id="Ellipse_54" data-name="Ellipse 54" cx="2.141" cy="2.141" r="2.141" transform="translate(20.688 0)" fill="#e3bd36"/>
      <circle id="Ellipse_55" data-name="Ellipse 55" cx="2.141" cy="2.141" r="2.141" transform="translate(27.577 0)" fill="#e3bd36"/>
    </g>
  </g>
</svg>
