<svg xmlns="http://www.w3.org/2000/svg" width="34.656" height="52.75" viewBox="0 0 34.656 52.75">
  <g id="Group_6158" data-name="Group 6158" transform="translate(-165 -360.5)">
    <g id="noun_Map_Marker_37155" data-name="noun_Map Marker_37155" transform="translate(143.99 352.92)">
      <g id="Group_6153" data-name="Group 6153" transform="translate(21.01 7.58)">
        <path id="Path_3199" data-name="Path 3199" d="M38.338,7.58c-9.57,0-17.328,6.862-17.328,17.328,0,14.6,17.328,20.478,17.328,35.422,0-14.943,17.328-21.13,17.328-35.422A17.329,17.329,0,0,0,38.338,7.58Z" transform="translate(-21.01 -7.58)" fill="#265e9e"/>
      </g>
    </g>
    <g id="noun_User_750578_1_" data-name="noun_User_750578 (1)" transform="translate(172.35 367.272)">
      <path id="Path_3222" data-name="Path 3222" d="M13,13.823a.048.048,0,0,1-.035-.048v-.681a5.212,5.212,0,0,0,.873-1.728,3.528,3.528,0,0,0,.756-1.526A2.449,2.449,0,0,0,14.461,7.7l-.022-.029c.232-1.118.522-3.761-1.486-5.1a1.237,1.237,0,0,0,.353-.9.119.119,0,0,0-.042-.084.126.126,0,0,0-.09-.027,16.931,16.931,0,0,1-3.746.035A2.679,2.679,0,0,0,6.543,3.234a1.83,1.83,0,0,0-1.19.672,4.074,4.074,0,0,0-.5,3.2c.015.183.037.366.07.549L4.9,7.679a2.48,2.48,0,0,0-.132,2.145,3.508,3.508,0,0,0,.754,1.524,5.234,5.234,0,0,0,.873,1.74v.67a.046.046,0,0,1-.035.048C4.645,14.218.65,15.484.65,18.647a.624.624,0,0,0,.624.624H18.088a.624.624,0,0,0,.624-.624C18.712,15.484,14.717,14.218,13,13.823ZM9.681,16.248A3.294,3.294,0,0,1,6.98,14.9a1.281,1.281,0,0,0,.587-.7,4.182,4.182,0,0,0,.9.45,3.633,3.633,0,0,0,2.423,0,4.271,4.271,0,0,0,.9-.454,1.281,1.281,0,0,0,.591.708,3.294,3.294,0,0,1-2.7,1.338ZM5.847,9.535c-.221-.781-.128-1.065-.053-1.164a.254.254,0,0,1,.22-.1h.053a.119.119,0,0,0,.124-.11A3.335,3.335,0,0,1,7.328,5.86a2.027,2.027,0,0,1,1.9.035,5.561,5.561,0,0,0,3.435.468,1.587,1.587,0,0,1,.52,1.735v.024a.12.12,0,0,0,.123.159.285.285,0,0,1,.267.093c.075.1.168.382-.053,1.164-.284,1-.514,1.1-.578,1.1a.117.117,0,0,0-.108.1A3.815,3.815,0,0,1,10.518,13.6a2.5,2.5,0,0,1-1.671,0,3.731,3.731,0,0,1-2.313-2.864.117.117,0,0,0-.108-.1C6.362,10.629,6.131,10.536,5.847,9.535Z" transform="translate(0 0)" fill="#fff"/>
    </g>
  </g>
</svg>
