<svg xmlns="http://www.w3.org/2000/svg" width="132" height="132" viewBox="0 0 132 132">
  <g id="Group_6298" data-name="Group 6298" transform="translate(-122 -214)">
    <circle id="Ellipse_102" data-name="Ellipse 102" cx="66" cy="66" r="66" transform="translate(122 214)" fill="#f7f7f7"/>
    <circle id="Ellipse_103" data-name="Ellipse 103" cx="52" cy="52" r="52" transform="translate(136 228)" fill="#e5e5e5"/>
    <g id="Rectangle_4200" data-name="Rectangle 4200" transform="translate(148 249)" fill="#fff" stroke="#fecd03" stroke-width="2">
      <rect width="79" height="63" rx="3" stroke="none"/>
      <rect x="1" y="1" width="77" height="61" rx="2" fill="none"/>
    </g>
    <g id="Group_6292" data-name="Group 6292" transform="translate(0 11.92)">
      <g id="Group_5652" data-name="Group 5652" transform="translate(172 284.189)">
        <circle id="Ellipse_51" data-name="Ellipse 51" cx="2.141" cy="2.141" r="2.141" transform="translate(0 0)" fill="#e3bd36"/>
        <circle id="Ellipse_52" data-name="Ellipse 52" cx="2.141" cy="2.141" r="2.141" transform="translate(6.893 0)" fill="#e3bd36"/>
        <circle id="Ellipse_53" data-name="Ellipse 53" cx="2.141" cy="2.141" r="2.141" transform="translate(13.788 0)" fill="#e3bd36"/>
        <circle id="Ellipse_54" data-name="Ellipse 54" cx="2.141" cy="2.141" r="2.141" transform="translate(20.688 0)" fill="#e3bd36"/>
        <circle id="Ellipse_55" data-name="Ellipse 55" cx="2.141" cy="2.141" r="2.141" transform="translate(27.577 0)" fill="#e3bd36"/>
      </g>
      <g id="noun_Key_2288" transform="translate(184.636 244.764) rotate(38)">
        <path id="Path_3928" data-name="Path 3928" d="M29.93,18.908a4.151,4.151,0,0,0,4.532.934l.348.235.654-.09-.607.8.748.749,1.384-.094-.266,1.052.643.666,1.136-.05-.21.878.815.817.886-.377.475.381-.232.525.056.04,2.776.165.212-1-6.77-6.88a3.907,3.907,0,0,0-.918-4.4,4,4,0,1,0-5.661,5.649Zm.716-3.2a1.274,1.274,0,1,1,1.832.035A1.284,1.284,0,0,1,30.645,15.707Z" transform="translate(-19.748 -8.297)" fill="#fecd03" fill-rule="evenodd"/>
        <g id="Group_5653" data-name="Group 5653" transform="translate(7.163 6.49)">
          <path id="Path_3929" data-name="Path 3929" d="M22.727,29.727A5.171,5.171,0,0,1,21.2,26.143a5.018,5.018,0,0,1,.152-1.244,4.108,4.108,0,0,0-.732,3.877,4.151,4.151,0,0,0,3.6,2.906l.2.367.623.22-.9.435.32,1.006,1.273.55-.717.814.267.885,1.032.476-.59.684.351,1.1.962.071.247.557-.447.359.03.06,2.392,1.42.65-.794L27.2,31.2a5,5,0,0,1-.791.065A5.176,5.176,0,0,1,22.727,29.727Z" transform="translate(-20.415 -24.899)" fill="#fecd03"/>
        </g>
        <g id="Group_5654" data-name="Group 5654" transform="translate(3.533 1.448)">
          <path id="Path_3930" data-name="Path 3930" d="M7.913,1.448A4.356,4.356,0,0,0,6.39,9.893c-.017-.136-.035-.271-.048-.413-.013-.159-.012-.31-.011-.462a3.578,3.578,0,1,1,5.174-3.19,3.391,3.391,0,0,1-.077.694.42.42,0,0,0,.365.353.368.368,0,0,0,.419-.23,4.274,4.274,0,0,0,.081-.817A4.385,4.385,0,0,0,7.913,1.448Z" transform="translate(-3.533 -1.448)" fill="#fecd03"/>
        </g>
      </g>
    </g>
  </g>
</svg>
