<svg id="settings_1_" data-name="settings (1)" xmlns="http://www.w3.org/2000/svg" width="16.999" height="16.999" viewBox="0 0 16.999 16.999">
  <g id="Group_6276" data-name="Group 6276" transform="translate(7.005 7.005)">
    <g id="Group_6275" data-name="Group 6275">
      <path id="Path_3224" data-name="Path 3224" d="M212.494,211a1.494,1.494,0,1,0,1.494,1.494A1.5,1.5,0,0,0,212.494,211Z" transform="translate(-211 -211)"/>
    </g>
  </g>
  <g id="Group_6278" data-name="Group 6278">
    <g id="Group_6277" data-name="Group 6277">
      <path id="Path_3225" data-name="Path 3225" d="M16.659,7.031l-2.049-.672a6.307,6.307,0,0,0-.277-.666l.951-1.9a.5.5,0,0,0-.093-.575L13.782,1.809a.5.5,0,0,0-.575-.093l-1.9.951a6.3,6.3,0,0,0-.666-.277L9.968.34A.5.5,0,0,0,9.5,0H7.5a.5.5,0,0,0-.472.34L6.359,2.39a6.307,6.307,0,0,0-.666.277l-1.9-.951a.5.5,0,0,0-.575.093L1.809,3.217a.5.5,0,0,0-.093.575l.951,1.9a6.3,6.3,0,0,0-.277.666L.34,7.031A.5.5,0,0,0,0,7.5V9.5a.5.5,0,0,0,.34.472l2.049.672a6.306,6.306,0,0,0,.277.666l-.951,1.9a.5.5,0,0,0,.093.575L3.217,15.19a.5.5,0,0,0,.575.093l1.9-.951a6.3,6.3,0,0,0,.666.277l.672,2.049A.5.5,0,0,0,7.5,17H9.5a.5.5,0,0,0,.472-.34l.672-2.049a6.307,6.307,0,0,0,.666-.277l1.9.951a.5.5,0,0,0,.575-.093l1.408-1.408a.5.5,0,0,0,.093-.575l-.951-1.9a6.3,6.3,0,0,0,.277-.666l2.049-.672A.5.5,0,0,0,17,9.5V7.5A.5.5,0,0,0,16.659,7.031ZM8.5,11.986A3.486,3.486,0,1,1,11.986,8.5,3.49,3.49,0,0,1,8.5,11.986Z"/>
    </g>
  </g>
</svg>
