<svg id="Group_6153" data-name="Group 6153" xmlns="http://www.w3.org/2000/svg" width="34.657" height="52.75" viewBox="0 0 34.657 52.75">
  <path id="Path_3199" data-name="Path 3199" d="M33.15,16.863l-1.692,7.089h2.3l1.052-7.089Zm5.989,0H37.561l-.341,7.089h2.241Zm4.465,0H41.961l1.029,7.089h2.325Zm0,0H41.961l1.029,7.089h2.325Zm-4.465,0H37.561l-.341,7.089h2.241Zm-5.989,0-1.692,7.089h2.3l1.052-7.089Zm0,0-1.692,7.089h2.3l1.052-7.089Zm5.989,0H37.561l-.341,7.089h2.241Zm4.465,0H41.961l1.029,7.089h2.325Zm0,0H41.961l1.029,7.089h2.325Zm-4.465,0H37.561l-.341,7.089h2.241Zm-5.989,0-1.692,7.089h2.3l1.052-7.089Zm0,0-1.692,7.089h2.3l1.052-7.089Zm5.989,0H37.561l-.341,7.089h2.241Zm4.465,0H41.961l1.029,7.089h2.325Zm0,0H41.961l1.029,7.089h2.325Zm-4.465,0H37.561l-.341,7.089h2.241Zm-5.989,0-1.692,7.089h2.3l1.052-7.089Zm0,0-1.692,7.089h2.3l1.052-7.089Zm5.989,0H37.561l-.341,7.089h2.241Zm4.465,0H41.961l1.029,7.089h2.325Zm1.71,7.089L43.6,16.863H41.961l1.029,7.089Zm-6.175-7.089H37.561l-.341,7.089h2.241Zm-4.334,0H33.15l-1.692,7.089h2.3Zm10.508,7.089L43.6,16.863H41.961l1.029,7.089Zm-6.175-7.089H37.561l-.341,7.089h2.241Zm-4.334,0H33.15l-1.692,7.089h2.3Zm-1.656,0-1.692,7.089h2.3l1.052-7.089Zm5.989,0H37.561l-.341,7.089h2.241Zm4.465,0H41.961l1.029,7.089h2.325Zm0,0H41.961l1.029,7.089h2.325Zm-4.465,0H37.561l-.341,7.089h2.241Zm-5.989,0-1.692,7.089h2.3l1.052-7.089Zm0,0-1.692,7.089h2.3l1.052-7.089Zm5.989,0H37.561l-.341,7.089h2.241Zm4.465,0H41.961l1.029,7.089h2.325Zm0,0H41.961l1.029,7.089h2.325Zm-4.465,0H37.561l-.341,7.089h2.241Zm-5.989,0-1.692,7.089h2.3l1.052-7.089Zm0,0-1.692,7.089h2.3l1.052-7.089Zm5.989,0H37.561l-.341,7.089h2.241Zm4.465,0H41.961l1.029,7.089h2.325Zm0,0H41.961l1.029,7.089h2.325Zm-4.465,0H37.561l-.341,7.089h2.241Zm-5.989,0-1.692,7.089h2.3l1.052-7.089Zm10.986,9.623a1.738,1.738,0,0,1-1.417-.9,1.615,1.615,0,0,1-2.893,0,1.615,1.615,0,0,1-2.893,0,1.606,1.606,0,0,1-2.881,0,1.768,1.768,0,0,1-1.435.9,1.54,1.54,0,0,1-1.3-.729v7.884h1.231V30.915a1.608,1.608,0,0,1,.036-.341v-2.72h2.989v2.032a1.7,1.7,0,0,1,.347,1.028v2.726h.795V30.915A1.682,1.682,0,0,1,38.4,29.23a1.674,1.674,0,0,1,1.686,1.686v2.726h.795V30.915a1.657,1.657,0,0,1,.377-1.058v-2h2.989v5.786h1.2V25.757A1.55,1.55,0,0,1,44.136,26.486Zm0,0a1.738,1.738,0,0,1-1.417-.9,1.615,1.615,0,0,1-2.893,0,1.615,1.615,0,0,1-2.893,0,1.606,1.606,0,0,1-2.881,0,1.768,1.768,0,0,1-1.435.9,1.54,1.54,0,0,1-1.3-.729v7.884h1.231V30.915a1.608,1.608,0,0,1,.036-.341v-2.72h2.989v2.032a1.7,1.7,0,0,1,.347,1.028v2.726h.795V30.915A1.682,1.682,0,0,1,38.4,29.23a1.674,1.674,0,0,1,1.686,1.686v2.726h.795V30.915a1.657,1.657,0,0,1,.377-1.058v-2h2.989v5.786h1.2V25.757A1.55,1.55,0,0,1,44.136,26.486Zm0,0a1.738,1.738,0,0,1-1.417-.9,1.615,1.615,0,0,1-2.893,0,1.615,1.615,0,0,1-2.893,0,1.606,1.606,0,0,1-2.881,0,1.768,1.768,0,0,1-1.435.9,1.54,1.54,0,0,1-1.3-.729v7.884h1.231V30.915a1.608,1.608,0,0,1,.036-.341v-2.72h2.989v2.032a1.7,1.7,0,0,1,.347,1.028v2.726h.795V30.915A1.682,1.682,0,0,1,38.4,29.23a1.674,1.674,0,0,1,1.686,1.686v2.726h.795V30.915a1.657,1.657,0,0,1,.377-1.058v-2h2.989v5.786h1.2V25.757A1.55,1.55,0,0,1,44.136,26.486Zm0,0a1.738,1.738,0,0,1-1.417-.9,1.615,1.615,0,0,1-2.893,0,1.615,1.615,0,0,1-2.893,0,1.606,1.606,0,0,1-2.881,0,1.768,1.768,0,0,1-1.435.9,1.54,1.54,0,0,1-1.3-.729v7.884h1.231V30.915a1.608,1.608,0,0,1,.036-.341v-2.72h2.989v2.032a1.7,1.7,0,0,1,.347,1.028v2.726h.795V30.915A1.682,1.682,0,0,1,38.4,29.23a1.674,1.674,0,0,1,1.686,1.686v2.726h.795V30.915a1.657,1.657,0,0,1,.377-1.058v-2h2.989v5.786h1.2V25.757A1.55,1.55,0,0,1,44.136,26.486Zm0,0a1.738,1.738,0,0,1-1.417-.9,1.615,1.615,0,0,1-2.893,0,1.615,1.615,0,0,1-2.893,0,1.606,1.606,0,0,1-2.881,0,1.768,1.768,0,0,1-1.435.9,1.54,1.54,0,0,1-1.3-.729v7.884h1.231V30.915a1.608,1.608,0,0,1,.036-.341v-2.72h2.989v2.032a1.7,1.7,0,0,1,.347,1.028v2.726h.795V30.915A1.682,1.682,0,0,1,38.4,29.23a1.674,1.674,0,0,1,1.686,1.686v2.726h.795V30.915a1.657,1.657,0,0,1,.377-1.058v-2h2.989v5.786h1.2V25.757A1.55,1.55,0,0,1,44.136,26.486Zm0,0a1.738,1.738,0,0,1-1.417-.9,1.615,1.615,0,0,1-2.893,0,1.615,1.615,0,0,1-2.893,0,1.606,1.606,0,0,1-2.881,0,1.768,1.768,0,0,1-1.435.9,1.54,1.54,0,0,1-1.3-.729v7.884h1.231V30.915a1.608,1.608,0,0,1,.036-.341v-2.72h2.989v2.032a1.7,1.7,0,0,1,.347,1.028v2.726h.795V30.915A1.682,1.682,0,0,1,38.4,29.23a1.674,1.674,0,0,1,1.686,1.686v2.726h.795V30.915a1.657,1.657,0,0,1,.377-1.058v-2h2.989v5.786h1.2V25.757A1.55,1.55,0,0,1,44.136,26.486Zm0,0a1.738,1.738,0,0,1-1.417-.9,1.615,1.615,0,0,1-2.893,0,1.615,1.615,0,0,1-2.893,0,1.606,1.606,0,0,1-2.881,0,1.768,1.768,0,0,1-1.435.9,1.54,1.54,0,0,1-1.3-.729v7.884h1.231V30.915a1.608,1.608,0,0,1,.036-.341v-2.72h2.989v2.032a1.7,1.7,0,0,1,.347,1.028v2.726h.795V30.915A1.682,1.682,0,0,1,38.4,29.23a1.674,1.674,0,0,1,1.686,1.686v2.726h.795V30.915a1.657,1.657,0,0,1,.377-1.058v-2h2.989v5.786h1.2V25.757A1.55,1.55,0,0,1,44.136,26.486Zm0,0a1.738,1.738,0,0,1-1.417-.9,1.615,1.615,0,0,1-2.893,0,1.615,1.615,0,0,1-2.893,0,1.606,1.606,0,0,1-2.881,0,1.768,1.768,0,0,1-1.435.9,1.54,1.54,0,0,1-1.3-.729v7.884h1.231V30.915a1.608,1.608,0,0,1,.036-.341v-2.72h2.989v2.032a1.7,1.7,0,0,1,.347,1.028v2.726h.795V30.915A1.682,1.682,0,0,1,38.4,29.23a1.674,1.674,0,0,1,1.686,1.686v2.726h.795V30.915a1.657,1.657,0,0,1,.377-1.058v-2h2.989v5.786h1.2V25.757A1.55,1.55,0,0,1,44.136,26.486Zm0,0a1.738,1.738,0,0,1-1.417-.9,1.615,1.615,0,0,1-2.893,0,1.615,1.615,0,0,1-2.893,0,1.606,1.606,0,0,1-2.881,0,1.768,1.768,0,0,1-1.435.9,1.54,1.54,0,0,1-1.3-.729v7.884h5.4V30.915A1.682,1.682,0,0,1,38.4,29.23a1.674,1.674,0,0,1,1.686,1.686v2.726h5.356V25.757A1.55,1.55,0,0,1,44.136,26.486Zm-8.56,5.7H32.588V27.855h2.989Zm8.667,0H41.255V27.855h2.989Zm-.108-5.7a1.738,1.738,0,0,1-1.417-.9,1.615,1.615,0,0,1-2.893,0,1.615,1.615,0,0,1-2.893,0,1.606,1.606,0,0,1-2.881,0,1.768,1.768,0,0,1-1.435.9,1.54,1.54,0,0,1-1.3-.729v7.884h5.4V30.915A1.682,1.682,0,0,1,38.4,29.23a1.674,1.674,0,0,1,1.686,1.686v2.726h5.356V25.757A1.55,1.55,0,0,1,44.136,26.486Zm-8.56,5.7H32.588V27.855h2.989Zm8.667,0H41.255V27.855h2.989Zm-.108-5.7a1.738,1.738,0,0,1-1.417-.9,1.615,1.615,0,0,1-2.893,0,1.615,1.615,0,0,1-2.893,0,1.606,1.606,0,0,1-2.881,0,1.768,1.768,0,0,1-1.435.9,1.54,1.54,0,0,1-1.3-.729v7.884h5.4V30.915A1.682,1.682,0,0,1,38.4,29.23a1.674,1.674,0,0,1,1.686,1.686v2.726h5.356V25.757A1.55,1.55,0,0,1,44.136,26.486Zm-8.56,5.7H32.588V27.855h2.989Zm8.667,0H41.255V27.855h2.989Zm-.108-5.7a1.738,1.738,0,0,1-1.417-.9,1.615,1.615,0,0,1-2.893,0,1.615,1.615,0,0,1-2.893,0,1.606,1.606,0,0,1-2.881,0,1.768,1.768,0,0,1-1.435.9,1.54,1.54,0,0,1-1.3-.729v7.884h5.4V30.915A1.682,1.682,0,0,1,38.4,29.23a1.674,1.674,0,0,1,1.686,1.686v2.726h5.356V25.757A1.55,1.55,0,0,1,44.136,26.486Zm-8.56,5.7H32.588V27.855h2.989Zm8.667,0H41.255V27.855h2.989ZM38.338,7.58c-9.57,0-17.328,6.862-17.328,17.328,0,14.6,17.328,20.478,17.328,35.422,0-14.943,17.328-21.13,17.328-35.422A17.329,17.329,0,0,0,38.338,7.58ZM48.775,24.257a1.914,1.914,0,0,1-1.721,1.632c-.162,0-.245-.03-.478.652L46.539,34.8c-.735,0-15.906.03-16.342.03l-.018-8.291c-.227-.681-.311-.658-.478-.658a1.908,1.908,0,0,1-1.721-1.626l-.024-.3h.024a.192.192,0,0,1,.12-.215l2.349-7.131a.267.267,0,0,1,.257-.2H46.049a.276.276,0,0,1,.262.191l2.379,7.155a.255.255,0,0,1,.084.108.213.213,0,0,1,0,.09H48.8Zm-4.638,2.23a1.738,1.738,0,0,1-1.417-.9,1.615,1.615,0,0,1-2.893,0,1.615,1.615,0,0,1-2.893,0,1.606,1.606,0,0,1-2.881,0,1.768,1.768,0,0,1-1.435.9,1.54,1.54,0,0,1-1.3-.729v7.884h5.4V30.915A1.682,1.682,0,0,1,38.4,29.23a1.674,1.674,0,0,1,1.686,1.686v2.726h5.356V25.757A1.55,1.55,0,0,1,44.136,26.486Zm-8.56,5.7H32.588V27.855h2.989Zm8.667,0H41.255V27.855h2.989Zm-.108-5.7a1.738,1.738,0,0,1-1.417-.9,1.615,1.615,0,0,1-2.893,0,1.615,1.615,0,0,1-2.893,0,1.606,1.606,0,0,1-2.881,0,1.768,1.768,0,0,1-1.435.9,1.54,1.54,0,0,1-1.3-.729v7.884h5.4V30.915A1.682,1.682,0,0,1,38.4,29.23a1.674,1.674,0,0,1,1.686,1.686v2.726h5.356V25.757A1.55,1.55,0,0,1,44.136,26.486Zm-8.56,5.7H32.588V27.855h2.989Zm8.667,0H41.255V27.855h2.989Zm-.108-5.7a1.738,1.738,0,0,1-1.417-.9,1.615,1.615,0,0,1-2.893,0,1.615,1.615,0,0,1-2.893,0,1.606,1.606,0,0,1-2.881,0,1.768,1.768,0,0,1-1.435.9,1.54,1.54,0,0,1-1.3-.729v7.884h5.4V30.915A1.682,1.682,0,0,1,38.4,29.23a1.674,1.674,0,0,1,1.686,1.686v2.726h5.356V25.757A1.55,1.55,0,0,1,44.136,26.486Zm-8.56,5.7H32.588V27.855h2.989Zm8.667,0H41.255V27.855h2.989Zm-.108-5.7a1.738,1.738,0,0,1-1.417-.9,1.615,1.615,0,0,1-2.893,0,1.615,1.615,0,0,1-2.893,0,1.606,1.606,0,0,1-2.881,0,1.768,1.768,0,0,1-1.435.9,1.54,1.54,0,0,1-1.3-.729v7.884h5.4V30.915A1.682,1.682,0,0,1,38.4,29.23a1.674,1.674,0,0,1,1.686,1.686v2.726h5.356V25.757A1.55,1.55,0,0,1,44.136,26.486Zm-8.56,5.7H32.588V27.855h2.989Zm8.667,0H41.255V27.855h2.989Zm-.108-5.7a1.738,1.738,0,0,1-1.417-.9,1.615,1.615,0,0,1-2.893,0,1.615,1.615,0,0,1-2.893,0,1.606,1.606,0,0,1-2.881,0,1.768,1.768,0,0,1-1.435.9,1.54,1.54,0,0,1-1.3-.729v7.884h1.231V30.915a1.608,1.608,0,0,1,.036-.341v-2.72h2.989v2.032a1.7,1.7,0,0,1,.347,1.028v2.726h.795V30.915A1.682,1.682,0,0,1,38.4,29.23a1.674,1.674,0,0,1,1.686,1.686v2.726h.795V30.915a1.657,1.657,0,0,1,.377-1.058v-2h2.989v5.786h1.2V25.757A1.55,1.55,0,0,1,44.136,26.486Zm0,0a1.738,1.738,0,0,1-1.417-.9,1.615,1.615,0,0,1-2.893,0,1.615,1.615,0,0,1-2.893,0,1.606,1.606,0,0,1-2.881,0,1.768,1.768,0,0,1-1.435.9,1.54,1.54,0,0,1-1.3-.729v7.884h1.231V30.915a1.608,1.608,0,0,1,.036-.341v-2.72h2.989v2.032a1.7,1.7,0,0,1,.347,1.028v2.726h.795V30.915A1.682,1.682,0,0,1,38.4,29.23a1.674,1.674,0,0,1,1.686,1.686v2.726h.795V30.915a1.657,1.657,0,0,1,.377-1.058v-2h2.989v5.786h1.2V25.757A1.55,1.55,0,0,1,44.136,26.486Zm0,0a1.738,1.738,0,0,1-1.417-.9,1.615,1.615,0,0,1-2.893,0,1.615,1.615,0,0,1-2.893,0,1.606,1.606,0,0,1-2.881,0,1.768,1.768,0,0,1-1.435.9,1.54,1.54,0,0,1-1.3-.729v7.884h1.231V30.915a1.608,1.608,0,0,1,.036-.341v-2.72h2.989v2.032a1.7,1.7,0,0,1,.347,1.028v2.726h.795V30.915A1.682,1.682,0,0,1,38.4,29.23a1.674,1.674,0,0,1,1.686,1.686v2.726h.795V30.915a1.657,1.657,0,0,1,.377-1.058v-2h2.989v5.786h1.2V25.757A1.55,1.55,0,0,1,44.136,26.486Zm0,0a1.738,1.738,0,0,1-1.417-.9,1.615,1.615,0,0,1-2.893,0,1.615,1.615,0,0,1-2.893,0,1.606,1.606,0,0,1-2.881,0,1.768,1.768,0,0,1-1.435.9,1.54,1.54,0,0,1-1.3-.729v7.884h1.231V30.915a1.608,1.608,0,0,1,.036-.341v-2.72h2.989v2.032a1.7,1.7,0,0,1,.347,1.028v2.726h.795V30.915A1.682,1.682,0,0,1,38.4,29.23a1.674,1.674,0,0,1,1.686,1.686v2.726h.795V30.915a1.657,1.657,0,0,1,.377-1.058v-2h2.989v5.786h1.2V25.757A1.55,1.55,0,0,1,44.136,26.486Zm0,0a1.738,1.738,0,0,1-1.417-.9,1.615,1.615,0,0,1-2.893,0,1.615,1.615,0,0,1-2.893,0,1.606,1.606,0,0,1-2.881,0,1.768,1.768,0,0,1-1.435.9,1.54,1.54,0,0,1-1.3-.729v7.884h1.231V30.915a1.608,1.608,0,0,1,.036-.341v-2.72h2.989v2.032a1.7,1.7,0,0,1,.347,1.028v2.726h.795V30.915A1.682,1.682,0,0,1,38.4,29.23a1.674,1.674,0,0,1,1.686,1.686v2.726h.795V30.915a1.657,1.657,0,0,1,.377-1.058v-2h2.989v5.786h1.2V25.757A1.55,1.55,0,0,1,44.136,26.486Zm0,0a1.738,1.738,0,0,1-1.417-.9,1.615,1.615,0,0,1-2.893,0,1.615,1.615,0,0,1-2.893,0,1.606,1.606,0,0,1-2.881,0,1.768,1.768,0,0,1-1.435.9,1.54,1.54,0,0,1-1.3-.729v7.884h1.231V30.915a1.608,1.608,0,0,1,.036-.341v-2.72h2.989v2.032a1.7,1.7,0,0,1,.347,1.028v2.726h.795V30.915A1.682,1.682,0,0,1,38.4,29.23a1.674,1.674,0,0,1,1.686,1.686v2.726h.795V30.915a1.657,1.657,0,0,1,.377-1.058v-2h2.989v5.786h1.2V25.757A1.55,1.55,0,0,1,44.136,26.486Zm0,0a1.738,1.738,0,0,1-1.417-.9,1.615,1.615,0,0,1-2.893,0,1.615,1.615,0,0,1-2.893,0,1.606,1.606,0,0,1-2.881,0,1.768,1.768,0,0,1-1.435.9,1.54,1.54,0,0,1-1.3-.729v7.884h5.4V30.915A1.682,1.682,0,0,1,38.4,29.23a1.674,1.674,0,0,1,1.686,1.686v2.726h5.356V25.757A1.55,1.55,0,0,1,44.136,26.486Zm-8.56,5.7H32.588V27.855h2.989Zm8.667,0H41.255V27.855h2.989Z" transform="translate(-21.01 -7.58)" fill="#265e9e"/>
</svg>
