<svg xmlns="http://www.w3.org/2000/svg" width="18.495" height="18.496" viewBox="0 0 18.495 18.496">
  <g id="speech-bubble" transform="translate(-0.004)">
    <path id="Path_3226" data-name="Path 3226" d="M162.961,182H152.088A1.085,1.085,0,0,0,151,183.084v7.586a1.085,1.085,0,0,0,1.084,1.084h8.99l2.045,2.012a.542.542,0,0,0,.922-.386v-10.3A1.085,1.085,0,0,0,162.961,182Zm-1.662,7.55h-7.586a.542.542,0,1,1,0-1.084H161.3a.542.542,0,0,1,0,1.084Zm-8.128-2.709a.542.542,0,0,1,.542-.542h5.419a.542.542,0,1,1,0,1.084h-5.419A.542.542,0,0,1,153.171,186.841Zm8.128-1.626h-7.586a.542.542,0,1,1,0-1.084H161.3a.542.542,0,0,1,0,1.084Z" transform="translate(-145.545 -175.425)"/>
    <path id="Path_3227" data-name="Path 3227" d="M13.045,5.491V1.084A1.085,1.085,0,0,0,11.961,0H1.088A1.085,1.085,0,0,0,0,1.084v10.3a.542.542,0,0,0,.922.386L2.971,9.753h1.4v-2.1A2.17,2.17,0,0,1,6.542,5.491Zm-2.709-.036a.542.542,0,1,1,.542-.542A.542.542,0,0,1,10.335,5.455ZM2.749,2.2h7.586a.542.542,0,1,1,0,1.084H2.749a.542.542,0,1,1,0-1.084ZM3.833,7.622H2.749a.542.542,0,0,1,0-1.084H3.833a.542.542,0,0,1,0,1.084ZM2.749,5.455a.542.542,0,0,1,0-1.084H8.168a.542.542,0,1,1,0,1.084Z" />
  </g>
</svg>
