<svg xmlns="http://www.w3.org/2000/svg" width="19.75" height="19.75" viewBox="0 0 19.75 19.75">
  <g id="translate" transform="translate(0 0)">
    <path id="Path_3228" data-name="Path 3228" d="M164.371,208.867h-7.437a2.13,2.13,0,0,0-2.128,2.128v4.041l-1.927,1.376a.579.579,0,0,0,0,.942l1.95,1.393a2.131,2.131,0,0,0,2.1,1.814h7.437a2.13,2.13,0,0,0,2.128-2.128v-7.437A2.13,2.13,0,0,0,164.371,208.867Zm-2.5,8.13c-.136,0-.242-.043-.273-.161l-.236-.824h-1.419l-.235.824c-.031.118-.136.161-.273.161-.217,0-.508-.136-.508-.335a.357.357,0,0,1,.012-.062l1.2-3.9a.5.5,0,0,1,.514-.273c.236,0,.465.087.521.273l1.2,3.9a.274.274,0,0,1,.012.062C162.378,216.855,162.087,217,161.87,217Zm0,0" transform="translate(-146.749 -200.81)"/>
    <path id="Path_3229" data-name="Path 3229" d="M346.375,330.281h1.079l-.539-1.9Zm0,0" transform="translate(-333.014 -315.712)"/>
    <path id="Path_3230" data-name="Path 3230" d="M6.9,10.185A3.269,3.269,0,0,1,7.624,8.13a3.1,3.1,0,0,1-1.778-.558,3.1,3.1,0,0,1-1.778.558.326.326,0,0,1,0-.653,2.456,2.456,0,0,0,1.266-.35,3.112,3.112,0,0,1-.816-1.794h-.45a.326.326,0,1,1,0-.653H5.52V3.889a.326.326,0,1,1,.652,0v.792H7.624a.326.326,0,1,1,0,.653h-.45a3.112,3.112,0,0,1-.816,1.794,2.453,2.453,0,0,0,1.266.35.326.326,0,0,1,.325.3A3.273,3.273,0,0,1,10.185,6.9h1.508V5.524L13.62,4.148a.579.579,0,0,0,0-.942L11.67,1.814A2.132,2.132,0,0,0,9.565,0H2.128A2.13,2.13,0,0,0,0,2.128V9.565a2.13,2.13,0,0,0,2.128,2.128H6.9Zm0,0" transform="translate(0 0)"/>
    <path id="Path_3231" data-name="Path 3231" d="M134.854,139.664a2.464,2.464,0,0,0,.671-1.386h-1.341A2.465,2.465,0,0,0,134.854,139.664Zm0,0" transform="translate(-129.008 -132.944)"/>
  </g>
</svg>
